<svg width="284" height="384" viewBox="0 0 284 384" fill="none" xmlns="http://www.w3.org/2000/svg">
<path d="M101.5 42.3868C104.594 40.6004 108.406 40.6004 111.5 42.3868L132.244 54.3632C135.338 56.1496 137.244 59.4508 137.244 63.0235V86.9765C137.244 90.5492 135.338 93.8504 132.244 95.6368L111.5 107.613C108.406 109.4 104.594 109.4 101.5 107.613L80.7561 95.6368C77.6621 93.8504 75.7561 90.5492 75.7561 86.9765V63.0235C75.7561 59.4508 77.6621 56.1496 80.7561 54.3632L101.5 42.3868Z" fill="#FEC61F"/>
<path d="M172.5 2.88675C175.594 1.10042 179.406 1.10042 182.5 2.88675L203.244 14.8632C206.338 16.6496 208.244 19.9508 208.244 23.5235V47.4765C208.244 51.0492 206.338 54.3504 203.244 56.1368L182.5 68.1132C179.406 69.8996 175.594 69.8996 172.5 68.1132L151.756 56.1368C148.662 54.3504 146.756 51.0492 146.756 47.4765V23.5235C146.756 19.9508 148.662 16.6496 151.756 14.8632L172.5 2.88675Z" fill="#FEC61F"/>
<path d="M172.5 81.8868C175.594 80.1004 179.406 80.1004 182.5 81.8868L203.244 93.8632C206.338 95.6496 208.244 98.9508 208.244 102.524V126.476C208.244 130.049 206.338 133.35 203.244 135.137L182.5 147.113C179.406 148.9 175.594 148.9 172.5 147.113L151.756 135.137C148.662 133.35 146.756 130.049 146.756 126.476V102.524C146.756 98.9508 148.662 95.6496 151.756 93.8632L172.5 81.8868Z" fill="#FEC61F"/>
<path d="M101.5 276.387C104.594 274.6 108.406 274.6 111.5 276.387L132.244 288.363C135.338 290.15 137.244 293.451 137.244 297.024V320.976C137.244 324.549 135.338 327.85 132.244 329.637L111.5 341.613C108.406 343.4 104.594 343.4 101.5 341.613L80.7561 329.637C77.6621 327.85 75.7561 324.549 75.7561 320.976V297.024C75.7561 293.451 77.6621 290.15 80.7561 288.363L101.5 276.387Z" fill="#FAFAFA"/>
<path d="M172.5 236.887C175.594 235.1 179.406 235.1 182.5 236.887L203.244 248.863C206.338 250.65 208.244 253.951 208.244 257.524V281.476C208.244 285.049 206.338 288.35 203.244 290.137L182.5 302.113C179.406 303.9 175.594 303.9 172.5 302.113L151.756 290.137C148.662 288.35 146.756 285.049 146.756 281.476V257.524C146.756 253.951 148.662 250.65 151.756 248.863L172.5 236.887Z" fill="#FEC61F"/>
<path d="M192.142 254.858C188.365 251.08 183.342 249 178 249C172.658 249 167.635 251.08 163.858 254.858C160.08 258.635 158 263.658 158 269C158 274.845 160.547 280.382 164.989 284.19C165.235 284.4 165.604 284.372 165.815 284.126C166.026 283.88 165.997 283.511 165.752 283.3C161.57 279.715 159.172 274.503 159.172 269C159.172 263.971 161.13 259.243 164.686 255.686C168.243 252.13 172.971 250.172 178 250.172C183.029 250.172 187.757 252.13 191.314 255.686C194.87 259.243 196.828 263.971 196.828 269C196.828 274.029 194.87 278.757 191.314 282.314C187.757 285.87 183.029 287.828 178 287.828C174.363 287.828 170.834 286.79 167.794 284.825C167.522 284.649 167.16 284.727 166.984 284.999C166.808 285.271 166.886 285.633 167.158 285.809C170.388 287.897 174.137 289 178 289C183.342 289 188.365 286.92 192.142 283.142C195.92 279.365 198 274.342 198 269C198 263.658 195.92 258.635 192.142 254.858V254.858Z" fill="#17171D"/>
<path d="M183.201 252.296C181.523 251.774 179.773 251.509 178 251.509C173.328 251.509 168.936 253.328 165.632 256.632C162.328 259.936 160.509 264.328 160.509 269C160.509 273.672 162.328 278.064 165.632 281.368C168.936 284.672 173.328 286.491 178 286.491C182.672 286.491 187.064 284.672 190.368 281.368C193.672 278.064 195.491 273.672 195.491 269C195.491 265.682 194.558 262.452 192.792 259.661C191.074 256.945 188.647 254.755 185.774 253.327C185.484 253.183 185.133 253.302 184.989 253.591C184.845 253.881 184.963 254.233 185.252 254.377C187.933 255.709 190.198 257.753 191.801 260.288C193.449 262.891 194.319 265.904 194.319 269C194.319 277.998 186.998 285.319 178 285.319C169.002 285.319 161.681 277.998 161.681 269C161.681 260.002 169.002 252.681 178 252.681C179.655 252.681 181.288 252.928 182.853 253.415C183.162 253.511 183.491 253.338 183.587 253.029C183.683 252.72 183.51 252.392 183.201 252.296V252.296Z" fill="#17171D"/>
<path d="M173.404 278.358C173.734 278.789 174.256 279.046 174.799 279.046H183.278C184.246 279.046 185.034 278.259 185.034 277.292C185.034 276.324 184.246 275.537 183.278 275.537H177.095L178.173 271.563L181.031 270.675C181.479 270.536 181.846 270.231 182.064 269.816C182.283 269.401 182.326 268.926 182.186 268.478C181.899 267.555 180.912 267.038 179.988 267.325L179.262 267.55L180.993 261.167C181.116 260.715 181.055 260.241 180.821 259.835C180.588 259.428 180.21 259.137 179.757 259.015C178.823 258.762 177.856 259.316 177.603 260.249L175.287 268.785L172.201 269.743C171.753 269.882 171.386 270.187 171.168 270.602C170.949 271.017 170.906 271.492 171.045 271.94C171.275 272.677 171.949 273.173 172.722 273.173C172.899 273.173 173.074 273.146 173.244 273.094L174.199 272.797L173.104 276.833C172.961 277.357 173.074 277.927 173.404 278.358V278.358ZM172.896 271.975C172.839 271.992 172.781 272.001 172.722 272.001C172.465 272.001 172.241 271.836 172.164 271.591C172.118 271.443 172.132 271.285 172.205 271.148C172.277 271.01 172.399 270.909 172.548 270.862L175.942 269.808C176.134 269.749 176.281 269.596 176.334 269.402L178.734 260.556C178.818 260.246 179.14 260.062 179.451 260.146C179.602 260.187 179.728 260.284 179.805 260.419C179.883 260.554 179.903 260.71 179.862 260.86L177.851 268.273C177.795 268.479 177.856 268.7 178.01 268.848C178.164 268.996 178.386 269.049 178.59 268.986L180.335 268.444C180.643 268.348 180.972 268.52 181.067 268.827C181.114 268.975 181.099 269.133 181.027 269.27C180.954 269.408 180.832 269.51 180.683 269.556L177.518 270.539C177.326 270.598 177.179 270.752 177.126 270.945L175.763 275.97C175.715 276.146 175.752 276.334 175.863 276.479C175.974 276.624 176.146 276.709 176.328 276.709H183.278C183.6 276.709 183.862 276.971 183.862 277.292C183.862 277.613 183.6 277.874 183.278 277.874H174.799C174.618 277.874 174.444 277.789 174.334 277.645C174.225 277.502 174.188 277.313 174.235 277.14L175.609 272.075C175.665 271.868 175.604 271.648 175.45 271.5C175.339 271.393 175.193 271.335 175.043 271.335C174.985 271.335 174.927 271.344 174.869 271.362L172.896 271.975Z" fill="#17171D"/>
<path d="M172.5 315.887C175.594 314.1 179.406 314.1 182.5 315.887L203.244 327.863C206.338 329.65 208.244 332.951 208.244 336.524V360.476C208.244 364.049 206.338 367.35 203.244 369.137L182.5 381.113C179.406 382.9 175.594 382.9 172.5 381.113L151.756 369.137C148.662 367.35 146.756 364.049 146.756 360.476V336.524C146.756 332.951 148.662 329.65 151.756 327.863L172.5 315.887Z" fill="#FEC61F"/>
<path d="M172.5 161.387C175.594 159.6 179.406 159.6 182.5 161.387L203.244 173.363C206.338 175.15 208.244 178.451 208.244 182.024V205.976C208.244 209.549 206.338 212.85 203.244 214.637L182.5 226.613C179.406 228.4 175.594 228.4 172.5 226.613L151.756 214.637C148.662 212.85 146.756 209.549 146.756 205.976V182.024C146.756 178.451 148.662 175.15 151.756 173.363L172.5 161.387Z" fill="#FAFAFA"/>
<path d="M243.5 121.887C246.594 120.1 250.406 120.1 253.5 121.887L274.244 133.863C277.338 135.65 279.244 138.951 279.244 142.524V166.476C279.244 170.049 277.338 173.35 274.244 175.137L253.5 187.113C250.406 188.9 246.594 188.9 243.5 187.113L222.756 175.137C219.662 173.35 217.756 170.049 217.756 166.476V142.524C217.756 138.951 219.662 135.65 222.756 133.863L243.5 121.887Z" fill="#FAFAFA"/>
<path d="M246.066 161.344H249.784C251.654 161.344 253.422 160.517 254.513 159.132H254.513C255.498 157.881 256.015 156.344 255.97 154.805C255.928 153.384 255.426 152.024 254.518 150.87C253.427 149.484 251.658 148.656 249.788 148.656H246.066C245.743 148.656 245.48 148.918 245.48 149.242V153.766C245.48 154.09 245.743 154.352 246.066 154.352H249.937C250.294 154.352 250.585 154.643 250.585 155C250.585 155.357 250.294 155.648 249.937 155.648H246.066C245.743 155.648 245.48 155.91 245.48 156.234V160.759C245.48 161.082 245.743 161.344 246.066 161.344V161.344ZM246.652 156.82H249.937C250.94 156.82 251.757 156.004 251.757 155C251.757 153.997 250.94 153.18 249.937 153.18H246.652V149.828H249.788C251.302 149.828 252.726 150.488 253.597 151.595C254.349 152.55 254.764 153.672 254.798 154.84C254.836 156.104 254.407 157.371 253.592 158.407C252.722 159.512 251.298 160.173 249.785 160.173H246.652V156.82Z" fill="#FEC61F"/>
<path d="M244.832 163.812H249.784C252.405 163.812 254.897 162.633 256.452 160.658C257.794 158.953 258.499 156.849 258.437 154.732V154.732C258.379 152.779 257.695 150.916 256.457 149.344C254.902 147.368 252.409 146.188 249.788 146.188H244.832C243.829 146.188 243.013 147.004 243.013 148.008V153.18H241.379C240.376 153.18 239.56 153.997 239.56 155C239.56 156.004 240.376 156.82 241.379 156.82H243.013V161.992C243.013 162.996 243.829 163.812 244.832 163.812V163.812ZM241.379 155.648C241.022 155.648 240.731 155.357 240.731 155C240.731 154.643 241.022 154.352 241.379 154.352H243.598C243.922 154.352 244.184 154.09 244.184 153.766V148.008C244.184 147.65 244.475 147.36 244.832 147.36H249.788C252.052 147.36 254.201 148.372 255.537 150.069C256.617 151.442 257.215 153.067 257.265 154.767V154.767C257.32 156.609 256.704 158.444 255.531 159.933C254.197 161.628 252.048 162.64 249.784 162.64H244.832C244.475 162.64 244.184 162.35 244.184 161.992V156.234C244.184 155.91 243.922 155.648 243.598 155.648H241.379V155.648Z" fill="#FEC61F"/>
<path d="M263.142 140.858C259.365 137.08 254.342 135 249 135C243.658 135 238.635 137.08 234.858 140.858C231.08 144.635 229 149.658 229 155C229 156.548 229.178 158.091 229.528 159.584C229.602 159.9 229.917 160.095 230.232 160.021C230.547 159.947 230.743 159.632 230.669 159.317C230.339 157.911 230.172 156.458 230.172 155C230.172 149.971 232.13 145.243 235.686 141.686C239.243 138.13 243.971 136.172 249 136.172C254.029 136.172 258.757 138.13 262.314 141.686C265.87 145.243 267.828 149.971 267.828 155C267.828 160.029 265.87 164.757 262.314 168.314C258.757 171.87 254.029 173.828 249 173.828C245.156 173.828 241.46 172.678 238.31 170.501C235.232 168.375 232.877 165.42 231.499 161.958C231.379 161.657 231.039 161.511 230.738 161.63C230.437 161.75 230.291 162.091 230.41 162.391C231.874 166.069 234.375 169.207 237.644 171.465C240.99 173.778 244.917 175 249 175C254.342 175 259.365 172.92 263.142 169.142C266.92 165.365 269 160.342 269 155C269 149.658 266.92 144.635 263.142 140.858V140.858Z" fill="#FEC61F"/>
<path d="M264.574 150.11C264.671 150.419 265 150.591 265.309 150.494C265.617 150.397 265.789 150.068 265.692 149.76C264.602 146.283 262.385 143.162 259.449 140.972C256.413 138.707 252.799 137.509 249 137.509C244.328 137.509 239.936 139.328 236.632 142.632C233.328 145.936 231.509 150.328 231.509 155C231.509 159.672 233.328 164.064 236.632 167.368C239.936 170.672 244.328 172.491 249 172.491C253.672 172.491 258.064 170.672 261.368 167.368C264.672 164.064 266.491 159.672 266.491 155C266.491 154.069 266.417 153.134 266.271 152.221C266.22 151.902 265.92 151.684 265.6 151.735C265.281 151.786 265.063 152.086 265.114 152.406C265.25 153.258 265.319 154.131 265.319 155C265.319 163.998 257.998 171.319 249 171.319C240.002 171.319 232.681 163.998 232.681 155C232.681 146.002 240.002 138.681 249 138.681C252.545 138.681 255.916 139.798 258.749 141.911C261.488 143.955 263.557 146.867 264.574 150.11Z" fill="#FEC61F"/>
<path d="M243.5 200.887C246.594 199.1 250.406 199.1 253.5 200.887L274.244 212.863C277.338 214.65 279.244 217.951 279.244 221.524V245.476C279.244 249.049 277.338 252.35 274.244 254.137L253.5 266.113C250.406 267.9 246.594 267.9 243.5 266.113L222.756 254.137C219.662 252.35 217.756 249.049 217.756 245.476V221.524C217.756 217.951 219.662 214.65 222.756 212.863L243.5 200.887Z" fill="#FEC61F"/>
<path d="M30.5 161.387C33.594 159.6 37.406 159.6 40.5 161.387L61.2439 173.363C64.3379 175.15 66.2439 178.451 66.2439 182.024V205.976C66.2439 209.549 64.3379 212.85 61.2439 214.637L40.5 226.613C37.406 228.4 33.594 228.4 30.5 226.613L9.7561 214.637C6.66209 212.85 4.7561 209.549 4.7561 205.976V182.024C4.7561 178.451 6.66209 175.15 9.7561 173.363L30.5 161.387Z" fill="#FEC61F"/>
<path d="M101.5 121.887C104.594 120.1 108.406 120.1 111.5 121.887L132.244 133.863C135.338 135.65 137.244 138.951 137.244 142.524V166.476C137.244 170.049 135.338 173.35 132.244 175.137L111.5 187.113C108.406 188.9 104.594 188.9 101.5 187.113L80.7561 175.137C77.6621 173.35 75.7561 170.049 75.7561 166.476V142.524C75.7561 138.951 77.6621 135.65 80.7561 133.863L101.5 121.887Z" fill="#FAFAFA"/>
<path d="M100.888 154.337L106.764 158.048C106.86 158.108 106.969 158.138 107.077 158.138C107.188 158.138 107.299 158.107 107.396 158.044L113.118 154.333C113.386 154.159 113.465 153.801 113.295 153.53L107.461 144.235C107.354 144.064 107.166 143.961 106.965 143.961C106.964 143.961 106.964 143.961 106.963 143.961C106.761 143.961 106.573 144.066 106.467 144.238L100.703 153.532C100.534 153.806 100.616 154.165 100.888 154.337ZM106.968 145.653L111.996 153.664L107.073 156.857L102.005 153.656L106.968 145.653Z" fill="#FEC61F"/>
<path d="M100.71 157.338L106.77 165.795C106.881 165.949 107.058 166.04 107.247 166.04C107.251 166.04 107.254 166.04 107.258 166.039C107.451 166.036 107.63 165.937 107.736 165.776L113.303 157.319C113.455 157.089 113.426 156.785 113.234 156.588C113.042 156.391 112.738 156.354 112.504 156.499L107.033 159.902L101.493 156.498C101.255 156.352 100.947 156.393 100.757 156.597C100.567 156.802 100.547 157.111 100.71 157.338ZM106.728 161.09C106.918 161.206 107.156 161.206 107.345 161.089L110.857 158.904L107.226 164.419L103.355 159.017L106.728 161.09Z" fill="#FEC61F"/>
<path d="M121.142 140.858C117.365 137.08 112.342 135 107 135C102.994 135 99.1294 136.18 95.8227 138.413C92.5962 140.591 90.0908 143.631 88.577 147.203C88.4507 147.501 88.5898 147.845 88.8878 147.971C89.1857 148.098 89.5296 147.958 89.6559 147.661C92.613 140.681 99.421 136.172 107 136.172C112.029 136.172 116.757 138.13 120.314 141.686C123.87 145.243 125.828 149.971 125.828 155C125.828 160.029 123.87 164.757 120.314 168.314C116.757 171.87 112.029 173.828 107 173.828C101.971 173.828 97.2427 171.87 93.6865 168.314C90.1303 164.757 88.1719 160.029 88.1719 155C88.1719 153.275 88.405 151.566 88.865 149.92C88.952 149.609 88.77 149.285 88.4584 149.198C88.1466 149.111 87.8234 149.293 87.7363 149.605C87.2477 151.353 87 153.168 87 155C87 160.342 89.0804 165.365 92.8578 169.142C96.6353 172.92 101.658 175 107 175C112.342 175 117.365 172.92 121.142 169.142C124.92 165.365 127 160.342 127 155C127 149.658 124.92 144.635 121.142 140.858V140.858Z" fill="#FEC61F"/>
<path d="M118.775 167.144C119.008 167.369 119.379 167.362 119.603 167.128C122.755 163.854 124.491 159.547 124.491 155C124.491 150.328 122.672 145.936 119.368 142.632C116.064 139.328 111.672 137.509 107 137.509C102.328 137.509 97.9357 139.328 94.632 142.632C91.3284 145.936 89.509 150.328 89.509 155C89.509 159.672 91.3284 164.064 94.632 167.368C97.9356 170.672 102.328 172.491 107 172.491C110.914 172.491 114.615 171.227 117.702 168.836C117.957 168.638 118.004 168.27 117.806 168.014C117.608 167.758 117.24 167.712 116.984 167.91C114.104 170.14 110.652 171.319 107 171.319C98.0016 171.319 90.6809 163.998 90.6809 155C90.6809 146.002 98.0016 138.681 107 138.681C115.998 138.681 123.319 146.002 123.319 155C123.319 159.242 121.7 163.261 118.759 166.316C118.534 166.549 118.541 166.92 118.775 167.144V167.144Z" fill="#FEC61F"/>
<path d="M101.5 200.887C104.594 199.1 108.406 199.1 111.5 200.887L132.244 212.863C135.338 214.65 137.244 217.951 137.244 221.524V245.476C137.244 249.049 135.338 252.35 132.244 254.137L111.5 266.113C108.406 267.9 104.594 267.9 101.5 266.113L80.7561 254.137C77.6621 252.35 75.7561 249.049 75.7561 245.476V221.524C75.7561 217.951 77.6621 214.65 80.7561 212.863L101.5 200.887Z" fill="#FEC61F"/>
<path d="M121.142 219.858C117.365 216.08 112.342 214 107 214C103.13 214 99.3743 215.107 96.1402 217.203C95.8685 217.378 95.791 217.741 95.967 218.013C96.1429 218.284 96.5058 218.362 96.7773 218.186C99.8213 216.214 103.356 215.172 107 215.172C112.029 215.172 116.757 217.13 120.314 220.686C123.87 224.243 125.828 228.971 125.828 234C125.828 239.029 123.87 243.757 120.314 247.314C116.757 250.87 112.029 252.828 107 252.828C101.971 252.828 97.2427 250.87 93.6865 247.314C90.1303 243.757 88.1719 239.029 88.1719 234C88.1719 228.504 90.5652 223.296 94.7381 219.712C94.9836 219.501 95.0116 219.131 94.8009 218.885C94.5899 218.64 94.2201 218.612 93.9746 218.823C89.5422 222.63 87 228.162 87 234C87 239.342 89.0804 244.365 92.8578 248.142C96.6354 251.92 101.658 254 107 254C112.342 254 117.365 251.92 121.142 248.142C124.92 244.365 127 239.342 127 234C127 228.658 124.92 223.635 121.142 219.858V219.858Z" fill="#17171D"/>
<path d="M116.21 248.872C118.694 247.331 120.77 245.175 122.214 242.635C123.704 240.016 124.491 237.03 124.491 234C124.491 229.328 122.672 224.936 119.368 221.632C116.064 218.328 111.672 216.509 107 216.509C102.328 216.509 97.9357 218.328 94.632 221.632C91.3284 224.936 89.509 229.328 89.509 234C89.509 238.672 91.3284 243.064 94.632 246.368C97.9357 249.672 102.328 251.491 107 251.491C109.368 251.491 111.665 251.026 113.828 250.108C114.125 249.982 114.264 249.638 114.138 249.34C114.012 249.042 113.668 248.903 113.37 249.029C111.353 249.885 109.21 250.319 107 250.319C98.0017 250.319 90.6809 242.998 90.6809 234C90.6809 225.002 98.0017 217.681 107 217.681C115.998 217.681 123.319 225.002 123.319 234C123.319 236.828 122.585 239.613 121.196 242.056C119.848 244.426 117.91 246.438 115.592 247.877C115.317 248.047 115.233 248.409 115.403 248.684C115.574 248.959 115.935 249.043 116.21 248.872V248.872Z" fill="#17171D"/>
<path d="M104.574 231.737L110.73 233.418C110.95 233.478 111.172 233.508 111.394 233.508C111.828 233.508 112.258 233.393 112.645 233.17C113.237 232.828 113.659 232.274 113.833 231.61C114.191 230.25 113.387 228.844 112.041 228.476L105.885 226.795C105.734 226.754 105.573 226.775 105.437 226.853C105.302 226.931 105.203 227.06 105.163 227.211L104.161 231.022C104.08 231.333 104.263 231.652 104.574 231.737V231.737ZM106.146 228.081L111.732 229.607C112.461 229.806 112.895 230.571 112.7 231.312C112.606 231.672 112.378 231.971 112.059 232.155C111.747 232.335 111.385 232.382 111.039 232.288L105.442 230.759L106.146 228.081Z" fill="#17171D"/>
<path d="M106.353 244.023C106.497 244.062 106.643 244.081 106.788 244.081C107.075 244.081 107.359 244.006 107.616 243.858C108.016 243.626 108.303 243.248 108.423 242.794L108.572 242.225L109.333 242.432C110.603 242.779 111.935 242.605 113.085 241.941C114.271 241.256 115.119 240.14 115.472 238.798C115.875 237.266 115.57 235.671 114.661 234.421C115.282 233.813 115.723 233.05 115.95 232.188C116.615 229.659 115.187 227.055 112.757 226.311L112.963 225.527C113.204 224.61 112.675 223.666 111.782 223.422C111.356 223.305 110.907 223.364 110.521 223.587C110.12 223.819 109.833 224.196 109.713 224.651L109.511 225.423L108.307 225.094L108.512 224.312C108.754 223.395 108.224 222.45 107.332 222.206C106.905 222.09 106.457 222.149 106.07 222.372C105.669 222.603 105.382 222.981 105.263 223.436L105.06 224.207L102.627 223.543C102.2 223.426 101.752 223.485 101.365 223.708C100.964 223.939 100.678 224.317 100.558 224.772C100.317 225.689 100.846 226.634 101.739 226.877L102.9 227.195L100.47 236.434L99.3196 236.12C98.8926 236.004 98.4444 236.062 98.0576 236.286C97.6567 236.517 97.3701 236.895 97.2505 237.35C97.0094 238.267 97.539 239.211 98.4312 239.455L100.875 240.122L100.722 240.702C100.481 241.619 101.011 242.564 101.903 242.807C102.33 242.924 102.778 242.865 103.165 242.642C103.566 242.411 103.852 242.033 103.972 241.578L104.122 241.009L105.325 241.338L105.173 241.917C104.932 242.835 105.461 243.779 106.353 244.023V244.023ZM103.86 239.723C103.809 239.709 103.757 239.702 103.705 239.702C103.603 239.702 103.502 239.729 103.412 239.78C103.277 239.859 103.178 239.988 103.139 240.139L102.838 241.28C102.799 241.43 102.707 241.553 102.579 241.627C102.465 241.693 102.335 241.71 102.212 241.677C101.937 241.602 101.777 241.298 101.855 241L102.156 239.859C102.237 239.548 102.053 239.229 101.743 239.145L98.7398 238.324C98.4651 238.249 98.3053 237.946 98.3837 237.648C98.4232 237.498 98.5154 237.374 98.6433 237.3C98.7572 237.235 98.8876 237.217 99.0107 237.251L100.732 237.721C100.882 237.762 101.043 237.741 101.179 237.663C101.314 237.585 101.413 237.456 101.453 237.304L104.181 226.931C104.262 226.62 104.078 226.301 103.768 226.217L102.047 225.747C101.773 225.672 101.613 225.368 101.691 225.07C101.731 224.92 101.823 224.797 101.951 224.723C102.065 224.657 102.195 224.64 102.318 224.673L105.322 225.493C105.473 225.535 105.633 225.514 105.769 225.436C105.904 225.358 106.003 225.228 106.043 225.077L106.396 223.734C106.436 223.584 106.528 223.461 106.656 223.387C106.77 223.321 106.9 223.303 107.023 223.337C107.298 223.412 107.457 223.716 107.379 224.014L107.026 225.357C106.944 225.668 107.128 225.987 107.438 226.071L109.772 226.709C109.923 226.75 110.084 226.729 110.22 226.651C110.355 226.573 110.454 226.444 110.493 226.293L110.847 224.949C110.886 224.799 110.978 224.676 111.106 224.602C111.22 224.537 111.351 224.519 111.474 224.553C111.748 224.628 111.908 224.931 111.83 225.229L111.477 226.573C111.395 226.884 111.579 227.202 111.889 227.287L112.312 227.403C114.207 227.92 115.331 229.933 114.816 231.89C114.604 232.697 114.146 233.387 113.491 233.886C113.36 233.986 113.277 234.137 113.263 234.301C113.249 234.466 113.304 234.629 113.416 234.75C114.346 235.757 114.691 237.159 114.338 238.5C114.066 239.537 113.412 240.399 112.499 240.926C111.622 241.432 110.607 241.566 109.642 241.302L108.31 240.938C108.16 240.897 107.999 240.918 107.863 240.996C107.728 241.074 107.629 241.203 107.589 241.355L107.289 242.496C107.25 242.645 107.158 242.769 107.03 242.843C106.916 242.908 106.785 242.926 106.662 242.892C106.387 242.817 106.228 242.514 106.306 242.216L106.606 241.075C106.688 240.764 106.504 240.445 106.194 240.36L103.86 239.723Z" fill="#17171D"/>
<path d="M110.648 240.328C111.13 240.328 111.606 240.201 112.035 239.953C112.693 239.574 113.161 238.958 113.355 238.22C113.753 236.709 112.861 235.148 111.368 234.74L104.303 232.81C104.152 232.769 103.991 232.79 103.855 232.868C103.72 232.946 103.621 233.075 103.582 233.226L102.436 237.584C102.354 237.895 102.538 238.214 102.848 238.299L109.913 240.228C110.156 240.295 110.403 240.328 110.648 240.328V240.328ZM104.565 234.097L111.059 235.87C111.935 236.11 112.457 237.03 112.222 237.922C112.108 238.355 111.834 238.716 111.45 238.938C111.074 239.155 110.638 239.212 110.222 239.098L103.717 237.321L104.565 234.097Z" fill="#17171D"/>
</svg>
